[2026-03-15 12:25:03] [INFO] Jarvis Desktop launcher started.
[2026-03-15 12:25:03] [INFO] Runtime log path: C:\Jarvis\logs\runtime_2026-03-15_12-25-03.txt
[2026-03-15 12:25:03] [INFO] Launcher executable: C:\Users\anden\AppData\Local\Python\pythoncore-3.14-64\pythonw.exe
[2026-03-15 12:25:03] [INFO] Root directory: C:\Jarvis
[2026-03-15 12:25:03] [INFO] Target script: C:\Jarvis\jarvis_desktop_test.py
[2026-03-15 12:25:03] [INFO] Diagnostics script: C:\Jarvis\desktop\jarvis_diagnostics.pyw
[2026-03-15 12:25:03] [INFO] Recovery attempts allowed: 3
[2026-03-15 12:25:03] [INFO] Voice hook ready: C:\Jarvis\jarvis_voice.py
[2026-03-15 12:25:03] [INFO] Starting desktop renderer process. attempt=1
[2026-03-15 12:25:03] [INFO] Child executable: C:\Users\anden\AppData\Local\Python\pythoncore-3.14-64\pythonw.exe
[2026-03-15 12:25:04] [STDOUT] Jarvis Desktop Concept 1 - Version 1.02
[2026-03-15 12:25:04] [STDOUT] Hotkey: Ctrl + Alt + End
[2026-03-15 12:25:04] [STDERR] Traceback (most recent call last):
[2026-03-15 12:25:04] [STDERR]   File "C:\Jarvis\jarvis_desktop_test.py", line 44, in <module>
[2026-03-15 12:25:04] [STDERR]     raise SystemExit(main())
[2026-03-15 12:25:04] [STDERR]                      ~~~~^^
[2026-03-15 12:25:04] [STDERR]   File "C:\Jarvis\jarvis_desktop_test.py", line 36, in main
[2026-03-15 12:25:04] [STDERR]     raise RuntimeError("Jarvis test crash triggered intentionally")
[2026-03-15 12:25:04] [STDERR] RuntimeError: Jarvis test crash triggered intentionally
[2026-03-15 12:25:04] [INFO] Desktop renderer exited. exit_code=1
[2026-03-15 12:25:04] [WARN] Recovery attempt 1/3
[2026-03-15 12:25:05] [INFO] Starting desktop renderer process. attempt=2
[2026-03-15 12:25:05] [INFO] Child executable: C:\Users\anden\AppData\Local\Python\pythoncore-3.14-64\pythonw.exe
[2026-03-15 12:25:05] [STDOUT] Jarvis Desktop Concept 1 - Version 1.02
[2026-03-15 12:25:05] [STDOUT] Hotkey: Ctrl + Alt + End
[2026-03-15 12:25:05] [STDERR] Traceback (most recent call last):
[2026-03-15 12:25:05] [STDERR]   File "C:\Jarvis\jarvis_desktop_test.py", line 44, in <module>
[2026-03-15 12:25:05] [STDERR]     raise SystemExit(main())
[2026-03-15 12:25:05] [STDERR]                      ~~~~^^
[2026-03-15 12:25:05] [STDERR]   File "C:\Jarvis\jarvis_desktop_test.py", line 36, in main
[2026-03-15 12:25:05] [STDERR]     raise RuntimeError("Jarvis test crash triggered intentionally")
[2026-03-15 12:25:05] [STDERR] RuntimeError: Jarvis test crash triggered intentionally
[2026-03-15 12:25:05] [INFO] Desktop renderer exited. exit_code=1
[2026-03-15 12:25:05] [WARN] Recovery attempt 2/3
[2026-03-15 12:25:06] [INFO] Starting desktop renderer process. attempt=3
[2026-03-15 12:25:06] [INFO] Child executable: C:\Users\anden\AppData\Local\Python\pythoncore-3.14-64\pythonw.exe
[2026-03-15 12:25:07] [STDOUT] Jarvis Desktop Concept 1 - Version 1.02
[2026-03-15 12:25:07] [STDOUT] Hotkey: Ctrl + Alt + End
[2026-03-15 12:25:07] [STDERR] Traceback (most recent call last):
[2026-03-15 12:25:07] [STDERR]   File "C:\Jarvis\jarvis_desktop_test.py", line 44, in <module>
[2026-03-15 12:25:07] [STDERR]     raise SystemExit(main())
[2026-03-15 12:25:07] [STDERR]                      ~~~~^^
[2026-03-15 12:25:07] [STDERR]   File "C:\Jarvis\jarvis_desktop_test.py", line 36, in main
[2026-03-15 12:25:07] [STDERR]     raise RuntimeError("Jarvis test crash triggered intentionally")
[2026-03-15 12:25:07] [STDERR] RuntimeError: Jarvis test crash triggered intentionally
[2026-03-15 12:25:07] [INFO] Desktop renderer exited. exit_code=1
[2026-03-15 12:25:07] [ERROR] Crash log written: C:\Jarvis\logs\crash\crash_2026-03-15_12-25-07.txt
[2026-03-15 12:25:07] [INFO] Trying voice line 'Uhm..... Sir, I seem to be malfunctioning.' using voice --text --mode
[2026-03-15 12:25:13] [VOICE_STDERR] Input #0, wav, from 'C:/Users/anden/AppData/Local/Temp/tmpiwf9oyoa.wav':
[2026-03-15 12:25:13] [VOICE_STDERR]   Metadata:
[2026-03-15 12:25:13] [VOICE_STDERR]     encoder         : Lavf62.13.100
[2026-03-15 12:25:13] [VOICE_STDERR]   Duration: 00:00:05.20, bitrate: 384 kb/s
[2026-03-15 12:25:13] [VOICE_STDERR]   Stream #0:0: Audio: pcm_s16le ([1][0][0][0] / 0x0001), 24000 Hz, 1 channels, s16, 384 kb/s
[2026-03-15 12:25:13] [INFO] Voice line completed: Uhm..... Sir, I seem to be malfunctioning.
[2026-03-15 12:25:13] [INFO] Failure voice step 1/3 success=True line=Uhm..... Sir, I seem to be malfunctioning.
[2026-03-15 12:25:14] [INFO] Trying voice line 'Attempting restart.' using voice --text --mode
[2026-03-15 12:25:18] [VOICE_STDERR] Input #0, wav, from 'C:/Users/anden/AppData/Local/Temp/tmpfocmy6kv.wav':
[2026-03-15 12:25:18] [VOICE_STDERR]   Metadata:
[2026-03-15 12:25:18] [VOICE_STDERR]     encoder         : Lavf62.13.100
[2026-03-15 12:25:18] [VOICE_STDERR]   Duration: 00:00:02.73, bitrate: 384 kb/s
[2026-03-15 12:25:18] [VOICE_STDERR]   Stream #0:0: Audio: pcm_s16le ([1][0][0][0] / 0x0001), 24000 Hz, 1 channels, s16, 384 kb/s
[2026-03-15 12:25:18] [INFO] Voice line completed: Attempting restart.
[2026-03-15 12:25:18] [INFO] Failure voice step 2/3 success=True line=Attempting restart.
[2026-03-15 12:25:19] [INFO] Trying voice line 'Restart failed.' using voice --text --mode
[2026-03-15 12:25:23] [VOICE_STDERR] Input #0, wav, from 'C:/Users/anden/AppData/Local/Temp/tmp8m7_3283.wav':
[2026-03-15 12:25:23] [VOICE_STDERR]   Metadata:
[2026-03-15 12:25:23] [VOICE_STDERR]     encoder         : Lavf62.13.100
[2026-03-15 12:25:23] [VOICE_STDERR]   Duration: 00:00:02.63, bitrate: 384 kb/s
[2026-03-15 12:25:23] [VOICE_STDERR]   Stream #0:0: Audio: pcm_s16le ([1][0][0][0] / 0x0001), 24000 Hz, 1 channels, s16, 384 kb/s
[2026-03-15 12:25:23] [INFO] Voice line completed: Restart failed.
[2026-03-15 12:25:23] [INFO] Failure voice step 3/3 success=True line=Restart failed.
[2026-03-15 12:25:24] [INFO] Diagnostics process launched.
